<?xml version="1.0" standalone="no"?>
<!DOCTYPE svg PUBLIC "-//W3C//DTD SVG 20010904//EN"
 "http://www.w3.org/TR/2001/REC-SVG-20010904/DTD/svg10.dtd">
<svg version="1.0" xmlns="http://www.w3.org/2000/svg"
 width="186.000000pt" height="163.000000pt" viewBox="0 0 186.000000 163.000000"
 preserveAspectRatio="xMidYMid meet">

<g transform="translate(0.000000,163.000000) scale(0.100000,-0.100000)"
fill="#000000" stroke="none">
<path d="M0 815 l0 -815 930 0 930 0 0 815 0 815 -930 0 -930 0 0 -815z m1131
685 c26 -15 25 -33 -22 -231 -22 -96 -51 -225 -63 -287 l-23 -112 43 -20 c24
-10 44 -22 44 -26 0 -3 -22 -4 -50 0 -46 6 -50 5 -50 -14 0 -19 4 -20 36 -14
l36 7 -7 -41 c-6 -36 -4 -42 19 -57 40 -26 83 -12 102 33 31 75 95 122 166
122 l43 0 70 115 c38 63 71 112 73 110 5 -5 -23 -58 -81 -153 -27 -45 -48 -84
-46 -86 2 -2 13 -8 24 -15 18 -11 17 -11 -10 -6 -26 5 -33 1 -49 -26 -10 -17
-15 -30 -10 -28 5 2 30 12 56 23 l48 19 32 100 c18 55 34 93 36 84 2 -9 -6
-46 -17 -82 -26 -84 -26 -88 2 -74 15 8 13 3 -10 -17 -27 -25 -36 -48 -67
-164 -41 -156 -60 -262 -53 -290 3 -14 0 -20 -10 -20 -23 0 -10 90 38 279 21
85 37 156 35 158 -2 2 -30 -9 -62 -24 -49 -24 -65 -39 -108 -102 -28 -41 -59
-79 -68 -85 -25 -15 -51 14 -52 58 -1 34 -3 36 -36 34 -19 0 -45 2 -58 6 -27
9 -45 50 -36 79 5 16 3 19 -11 14 -9 -4 -20 -7 -25 -7 -18 0 -51 -251 -51
-391 1 -81 -3 -110 -14 -119 -18 -15 -37 -3 -30 19 3 9 6 51 7 93 1 97 -22
147 -103 223 -56 51 -151 105 -281 158 l-37 16 -79 -137 c-44 -75 -86 -150
-95 -167 -16 -29 -16 -29 -17 -6 0 13 36 89 80 168 44 79 80 147 80 152 0 5
-14 14 -30 21 -21 9 -30 19 -30 35 0 25 29 41 91 51 36 6 45 13 77 63 158 251
303 423 442 525 65 48 79 53 111 36z"/>
<path d="M960 1353 c-74 -76 -164 -173 -199 -216 -79 -97 -184 -251 -174 -254
4 -1 98 -4 209 -6 l201 -5 12 66 c7 37 37 172 67 299 31 128 52 237 49 243 -3
5 -11 10 -18 10 -6 0 -72 -62 -147 -137z"/>
<path d="M541 821 c-12 -16 -21 -32 -21 -35 0 -3 61 -35 135 -72 112 -54 146
-76 198 -127 34 -34 67 -71 74 -82 11 -18 12 -16 13 20 1 22 7 76 14 120 8 44
13 81 11 83 -1 1 -16 -3 -34 -9 -67 -23 -74 44 -9 94 l30 24 -138 6 c-241 12
-250 11 -273 -22z"/>
<path d="M441 831 c-11 -7 -7 -13 17 -25 29 -15 31 -15 46 9 16 25 16 25 -16
25 -18 0 -39 -4 -47 -9z"/>
<path d="M1299 817 c-32 -21 -79 -80 -79 -98 0 -13 113 32 127 50 6 9 19 28
28 44 16 27 16 27 -13 27 -16 0 -44 -10 -63 -23z"/>
<path d="M932 783 c-41 -40 -32 -54 17 -28 22 11 31 23 31 40 0 33 -5 32 -48
-12z"/>
<path d="M1258 703 c-37 -13 -47 -21 -52 -44 -3 -16 -2 -38 2 -50 8 -20 10
-19 39 17 33 42 67 95 62 93 -2 0 -25 -8 -51 -16z"/>
</g>
</svg>
